# xmcd CD database file
#
# Track frame offsets:
#	150
#	19953
#	38809
#	56429
#	95659
#	127558
#	144766
#	157667
#	171281
#	191793
#	203829
#
# Disc length: 3257 seconds
#
# Revision: 0
# Processed by: cddbd v1.5.1PL0 Copyright (c) Steve Scherf et al.
# Submitted via: CDex 1.51
#
DISCID=870cb70b
DTITLE=Karl Berger and Friends - Stillpoint
DYEAR=2001
DGENRE=Jazz
TTITLE0=Stillpoint
TTITLE1=Possible
TTITLE2=Sun Rays
TTITLE3=Go
TTITLE4=Feel
TTITLE5=Together
TTITLE6=Go Vibes/Guitar
TTITLE7=Choose Piano/Bass
TTITLE8=Street World
TTITLE9=Feel Bass
TTITLE10=Stillpoint/Possible
EXTD=YEAR: 2001
EXTT0=
EXTT1=
EXTT2=
EXTT3=
EXTT4=
EXTT5=
EXTT6=
EXTT7=
EXTT8=
EXTT9=
EXTT10=
PLAYORDER=
